<svg width="46" height="45" viewBox="0 0 46 45" fill="none" xmlns="http://www.w3.org/2000/svg">
<path d="M17.375 18.7501C19.4461 18.7501 21.125 17.0712 21.125 15.0001C21.125 12.9291 19.4461 11.2501 17.375 11.2501C15.3039 11.2501 13.625 12.9291 13.625 15.0001C13.625 17.0712 15.3039 18.7501 17.375 18.7501Z" stroke="#939598" stroke-width="2.8125" stroke-linecap="round" stroke-linejoin="round"/>
<path d="M24.875 3.75012H17.375C8 3.75012 4.25 7.50012 4.25 16.8751V28.1251C4.25 37.5001 8 41.2501 17.375 41.2501H28.625C38 41.2501 41.75 37.5001 41.75 28.1251V18.7501" stroke="#939598" stroke-width="2.8125" stroke-linecap="round" stroke-linejoin="round"/>
<path d="M30.0312 9.37512H40.3438" stroke="#939598" stroke-width="2.8125" stroke-linecap="round"/>
<path d="M35.1875 14.5314V4.21887" stroke="#939598" stroke-width="2.8125" stroke-linecap="round"/>
<path d="M5.50586 35.5314L14.7496 29.3252C16.2309 28.3314 18.3684 28.4439 19.6996 29.5877L20.3184 30.1314C21.7809 31.3877 24.1434 31.3877 25.6059 30.1314L33.4059 23.4377C34.8684 22.1814 37.2309 22.1814 38.6934 23.4377L41.7496 26.0627" stroke="#939598" stroke-width="2.8125" stroke-linecap="round" stroke-linejoin="round"/>
</svg>
