<svg width="16" height="17" viewBox="0 0 16 17" fill="none" xmlns="http://www.w3.org/2000/svg">
<g id="Frame" clip-path="url(#clip0_2208_47855)">
<path id="Vector" d="M13.6949 15.5543L14.6489 14.6155C15.117 14.1511 15.117 13.3983 14.6489 12.9339L13.6949 11.995M14.7034 13.7747H10.1653M11.4703 7.99079L10.5164 8.92968C10.0482 9.39402 10.0482 10.1469 10.5164 10.6112L11.4703 11.5501M10.4619 9.77045H15M3.36959 10.245H5.62712M3.36959 7.87214H8.35593M9.47976 5.49926H3.36959M9.2161 15.9399H2.77966C1.79678 15.9399 1 15.1432 1 14.1603V3.7196C1 2.73673 1.79678 1.93994 2.77966 1.93994H10.073C11.0559 1.93994 11.8526 2.73673 11.8526 3.7196V5.88486" stroke="#E9F0F8" stroke-miterlimit="10" stroke-linecap="round" stroke-linejoin="round"/>
</g>
<defs>
<clipPath id="clip0_2208_47855">
<rect width="16" height="16" fill="white" transform="translate(0 0.440063)"/>
</clipPath>
</defs>
</svg>
